<svg width="651.41" height="154.93" xml:space="preserve" style="enable-background:new 0 0 651.41 154.93;" viewBox="0 0 651.41 154.93" y="0px" x="0px" xmlns:xlink="http://www.w3.org/1999/xlink" xmlns="http://www.w3.org/2000/svg" id="Laag_1" version="1.1">
<style type="text/css">
	.st0{fill:#E20023;}
</style>
<g>
	<path d="M96.43,65.45c-0.6,2.56-2.31,4.29-7.79,4.29H73.83l0.8-3.37l0.57-2.28c0.57-2,1.76-3.64,3.33-3.64l0.52-0.04
		H90.7C96.21,60.42,97.05,63.07,96.43,65.45L96.43,65.45z M73.46,84.08h14.21c5.4,0,6.49,2.77,5.8,5.55
		c-0.74,2.93-5.43,5.11-10.83,5.11H67.62l0.62-2.54L69,89.09l0.29-1.1c0.54-2.03,1.95-3.9,3.53-3.9H73.46z M125.14,61.69
		c1.83-8.29-2.27-16.25-16.37-16.25H56.32c-2.74,0-5.06,2.53-5.94,6.09l-0.25,1.03l-13.49,54.52c-0.45,1.82,0.93,3.58,2.8,3.58
		h51.46c15.93,0,24.48-4.73,29.15-12.86c1.27-2.22,2.25-3.82,2.85-6.76c0.25-1.19,0.56-3.78,0.19-6.15
		c-0.67-4.2-2.76-9.12-7.46-10.32l-0.59-0.18C120.73,72.47,123.6,68.58,125.14,61.69L125.14,61.69z" class="st0"></path>
	<path d="M217.8,106.13l-13.16-54.06c-1.15-4.76-3.13-6.59-6.14-6.64h-24.51c-5.68,0-8.51,4.7-9.63,6.06l-40.72,56.29
		c-0.87,1.2-0.01,2.88,1.47,2.88h19.41c1.9,0,3.13-0.44,4.81-2.66l3.15-4.32c0.85-1.24,2.01-2.83,4.66-2.83h28.68
		c2.7,0,3.34,3.37,3.34,3.37l1.12,4.56c0,0,0.74,1.88,2.16,1.88h22.63C218.06,110.66,217.96,106.85,217.8,106.13z M182.93,84.6
		h-14.11c-0.93,0-1.4-1.46-0.86-2.37l9.23-12.76c1.38-1.99,3.32-0.55,3.78,1.02l2.9,11.85C184.34,84.22,183.15,84.6,182.93,84.6z" class="st0"></path>
	<path d="M298.97,50.11c0.26-1.28,0.09-4.68-2.48-4.68h-69.17c-4.68,0-5.83,5.98-5.83,5.98l-2.14,8.79
		c-0.41,2,0.72,4.45,2.4,4.45h18.35c1.83,0,2.65,2.94,2.27,4.46l-9.29,37.98c-0.45,1.82,0.93,3.58,2.81,3.58h20.41
		c4.12,0,5.5-5.43,5.5-5.43c-1.28,5.33,9.2-37.54,9.2-37.54s0.48-3.05,2.52-3.05h17.44c4.58,0,5.8-5.51,5.8-5.51L298.97,50.11z" class="st0"></path>
	<path d="M371.48,106.13l-13.14-54.06c-1.16-4.76-3.14-6.59-6.16-6.64h-24.51c-5.69,0-8.52,4.7-9.64,6.06l-40.72,56.31
		c-0.86,1.19-0.01,2.86,1.46,2.86h19.42c1.89,0,3.14-0.44,4.83-2.66l3.14-4.32c0.83-1.24,2-2.83,4.65-2.83h28.69
		c2.68,0,3.35,3.37,3.35,3.37l1.13,4.56c0,0,0.74,1.88,2.17,1.88h22.62C371.76,110.66,371.66,106.85,371.48,106.13z M336.6,84.6
		h-14.09c-0.92,0-1.4-1.46-0.89-2.37l9.24-12.76c1.41-1.99,3.34-0.55,3.79,1.02l2.89,11.85C338.04,84.22,336.83,84.6,336.6,84.6z" class="st0"></path>
	<path d="M455.24,51.03c0.84-1.73,0.31-5.59-2.05-5.59h-14.58c-4.09,0-6.05,2.18-7.76,5.29l-16.4,32.15
		c-0.66,1.58-3.07,3.16-4.38-0.64l-7.15-29.74c-0.51-2.04-1.66-7.06-6.34-7.06h-20.07c-1.82,0-2.98,2.51-2.32,5.01l14.36,58.84
		c0.2,0.8,0.92,1.37,1.74,1.37h28.14c3.33,0,7.52-2.49,9.47-5.83L455.24,51.03z" class="st0"></path>
	<path d="M529.04,89.54l10.82-44.1h-25c-4.83,0-5.92,4.76-6.43,6.47l-8.92,36.32c-0.74,3.04-2.25,5.33-7.2,5.33
		c-5.1,0-6.13-2.01-5.32-5.33l9.29-37.77c0.48-1.68,0.02-5.01-2.36-5.01h-21.59c-4.66,0-5.89,4.59-6.49,7.22l-9.05,37.11
		c-2.64,10.71,3.19,17.94,14.74,20.9c3.91,1,8.47,1.5,13.6,1.5c6.07,0,11.73-0.48,16.85-1.5
		C516.25,107.85,526.26,100.96,529.04,89.54L529.04,89.54z" class="st0"></path>
	<path d="M614.09,51.72l1.41-5.63c-6.31-1.08-12.39-1.76-19.93-2.34c-33.03-2.44-48.97,7.82-49.44,21.57
		c-0.55,15.92,28.97,17.89,28.73,25.05c-0.14,3.88-5.03,5.29-15.23,4.53c-4.57-0.3-13.49-1.55-13.72-1.61
		c-5.84-1.2-9.2,6.13-9.82,8.77c-0.33,1.44-1.51,6.08-1.51,6.08c6.15,1.14,14.13,2.22,22.83,2.85c29.53,2.21,50.42-5.05,51.11-21.51
		c0.68-16.29-28.96-18.8-28.69-25.95c0.1-3.2,3.8-4.81,14.81-3.99c3.76,0.28,8.66,1.03,10.23,1.24
		C610.59,61.26,613.51,53.98,614.09,51.72L614.09,51.72z" class="st0"></path>
</g>
</svg>
